<svg xmlns="http://www.w3.org/2000/svg" viewBox="0 0 64 64">
  <rect width="64" height="64" rx="16" fill="#fffdf9"/>
  <rect x="4" y="4" width="56" height="56" rx="14" fill="#f3efe7" stroke="#d8cfbf" stroke-width="2"/>

  <rect x="12" y="12" width="16" height="16" rx="3" fill="#1f6a53"/>
  <rect x="16" y="16" width="8" height="8" rx="1.5" fill="#fffdf9"/>

  <rect x="36" y="12" width="16" height="16" rx="3" fill="#1f6a53"/>
  <rect x="40" y="16" width="8" height="8" rx="1.5" fill="#fffdf9"/>

  <rect x="12" y="36" width="16" height="16" rx="3" fill="#1f6a53"/>
  <rect x="16" y="40" width="8" height="8" rx="1.5" fill="#fffdf9"/>

  <rect x="36" y="36" width="6" height="6" rx="1.5" fill="#154b3b"/>
  <rect x="44" y="36" width="8" height="8" rx="2" fill="#1f6a53"/>
  <rect x="36" y="46" width="8" height="6" rx="1.5" fill="#1f6a53"/>
  <rect x="46" y="46" width="6" height="6" rx="1.5" fill="#154b3b"/>

  <rect x="30" y="22" width="4" height="4" rx="1" fill="#1f6a53"/>
  <rect x="30" y="30" width="4" height="4" rx="1" fill="#154b3b"/>
  <rect x="22" y="30" width="4" height="4" rx="1" fill="#1f6a53"/>
  <rect x="38" y="30" width="4" height="4" rx="1" fill="#1f6a53"/>
</svg>
